Coordinates
version=1
nRows=16
nColumns=40
inDegrees=yes

Units are S.I. units (second, meters, Newtons, ...)
Angles are in degrees.

endheader
time	pelvis_tilt	pelvis_list	pelvis_rotation	pelvis_tx	pelvis_ty	pelvis_tz	hip_flexion_r	hip_adduction_r	hip_rotation_r	knee_angle_r	knee_angle_r_beta	ankle_angle_r	subtalar_angle_r	mtp_angle_r	hip_flexion_l	hip_adduction_l	hip_rotation_l	knee_angle_l	knee_angle_l_beta	ankle_angle_l	subtalar_angle_l	mtp_angle_l	lumbar_extension	lumbar_bending	lumbar_rotation	arm_flex_r	arm_add_r	arm_rot_r	elbow_flex_r	pro_sup_r	wrist_flex_r	wrist_dev_r	arm_flex_l	arm_add_l	arm_rot_l	elbow_flex_l	pro_sup_l	wrist_flex_l	wrist_dev_l
     21.34500000	     -6.33330778	     -4.15379776	      0.55275086	      1.03054607	      0.91390888	      0.45366279	     27.39938852	     -0.37604063	    -14.16261279	     23.54961927	     23.54961927	      4.60886309	     -5.69770553	     -0.71257094	      6.22416218	    -10.09573575	     -3.16816444	     39.90725400	     39.90725400	     10.10295847	    -10.66744107	    -17.10955784	    -11.41366878	      3.17682341	      0.58796856	    -16.01878472	    -13.01868164	     -5.69580653	     28.16108515	     46.44321662	      0.00000000	      0.00000000	     17.43951215	    -18.19579347	     -8.28837446	    108.64436000	     48.51979181	      0.00000000	      0.00000000
     21.35657143	     -6.42618526	     -4.47751393	      0.86794989	      1.03058189	      0.91523891	      0.45627709	     26.56184934	      0.08796828	    -14.69059358	     22.92877243	     22.92877243	      5.01296608	     -5.36155050	     -0.81497735	      8.61748596	    -10.72946139	     -2.02733786	     44.23999363	     44.23999363	      7.78948710	    -12.18572440	    -16.60567815	    -11.44769918	      3.48240593	      0.81028289	    -14.43026719	    -13.05272875	     -5.56943626	     28.86923564	     46.41499032	      0.00000000	      0.00000000	     16.31186062	    -17.73885881	     -7.78504555	    107.84093933	     48.47024562	      0.00000000	      0.00000000
     21.36814286	     -6.51220311	     -4.75151092	      1.15963128	      1.03046335	      0.91649404	      0.45876524	     25.75316952	      0.49219701	    -15.24720766	     22.34650317	     22.34650317	      5.40056074	     -4.90833476	     -0.97982462	     11.07855801	    -11.15311981	     -0.77345535	     48.45577162	     48.45577162	      5.46024656	    -13.80637875	    -15.56089896	    -11.49628811	      3.72185465	      0.96819492	    -12.66647875	    -13.16010942	     -5.48205048	     29.74347147	     46.38435170	      0.00000000	      0.00000000	     15.08450042	    -17.27333746	     -7.27622933	    106.80096721	     48.41445556	      0.00000000	      0.00000000
     21.37971429	     -6.53927483	     -4.97555418	      1.36886116	      1.03031344	      0.91772748	      0.46115428	     24.91493322	      0.86816420	    -15.70368618	     21.81191745	     21.81191745	      5.74603651	     -4.39199534	     -1.15600863	     13.48840559	    -11.44267028	      0.37718830	     52.47770892	     52.47770892	      3.35074030	    -15.15485822	    -14.24139810	    -11.60712945	      3.93693694	      1.16023112	    -10.74028071	    -13.28333711	     -5.42272275	     30.71133010	     46.35365694	      0.00000000	      0.00000000	     13.84787569	    -16.76219761	     -6.74377071	    105.60776461	     48.35313717	      0.00000000	      0.00000000
     21.39128571	     -6.70283036	     -5.13640306	      1.68150382	      1.02996652	      0.91874658	      0.46324486	     24.16383843	      1.12317464	    -16.32064218	     21.14745944	     21.14745944	      6.03119418	     -3.65601168	     -1.40742193	     16.14798120	    -11.45607319	      1.73593592	     56.33524659	     56.33524659	      1.80253974	    -16.26759529	    -11.84932715	    -11.48990210	      4.08246771	      1.14801381	     -8.93807262	    -13.50000015	     -5.33210896	     31.85964025	     46.31092868	      0.00000000	      0.00000000	     12.45481336	    -16.54329050	     -6.31948824	    103.68622509	     48.28542053	      0.00000000	      0.00000000
     21.40285714	     -6.69065641	     -5.12913822	      1.86074499	      1.02964158	      0.91987904	      0.46527072	     23.30460252	      1.18552135	    -16.98449705	     20.65831234	     20.65831234	      6.20283333	     -2.64766070	     -2.46288410	     18.84869718	    -11.23786962	      2.82140184	     60.58625204	     60.58625204	      4.22416598	    -14.82158523	     -1.13475286	    -11.59617296	      4.03961367	      1.80738824	     -7.78726245	    -14.00597353	     -4.16582519	     34.42595282	     46.11440559	      0.00000000	      0.00000000	     11.91910689	    -15.80765236	     -5.55677050	    100.51178463	     48.21150419	      0.00000000	      0.00000000
     21.41442857	     -6.71984330	     -5.29229902	      2.03090271	      1.02923489	      0.92087020	      0.46745972	     22.47087951	      1.54742776	    -17.31482515	     20.05791628	     20.05791628	      6.49109366	     -2.20597769	     -2.55199817	     21.21434506	    -11.32763804	      3.65711554	     63.57829308	     63.57829308	      3.11590727	    -15.37746915	     -0.30805289	    -11.67492288	      4.15378308	      1.84514699	     -5.57166069	    -14.21506386	     -4.12957651	     35.56079370	     46.07944555	      0.00000000	      0.00000000	     10.53338101	    -15.69473758	     -5.02136717	     98.39778920	     48.13622390	      0.00000000	      0.00000000
     21.42600000	     -6.67684759	     -5.40615762	      2.19654989	      1.02881102	      0.92192297	      0.46953825	     21.58690272	      1.83282132	    -17.70571580	     19.52886842	     19.52886842	      6.80888927	     -1.56897607	     -2.75970019	     23.46351142	    -11.34359903	      4.38097216	     66.19876187	     66.19876187	      2.77618053	    -15.54413790	      1.19299903	    -11.83016017	      4.20178158	      2.05095547	     -3.34812964	    -14.49620498	     -3.93491376	     36.78865791	     46.02952218	      0.00000000	      0.00000000	      9.52933381	    -15.22691860	     -4.54086236	     95.28427433	     48.04881035	      0.00000000	      0.00000000
     21.43757143	     -6.64542002	     -5.52353398	      2.33994178	      1.02831622	      0.92285577	      0.47147637	     20.73727692	      2.12298002	    -18.06335109	     19.02019630	     19.02019630	      7.09964033	     -0.99713654	     -3.03310881	     25.73189277	    -11.36121338	      4.97542122	     68.50469694	     68.50469694	      3.18825224	    -15.38595519	      3.46989985	    -11.90704666	      4.32185593	      2.78897507	     -1.45296274	    -14.93491031	     -3.45653772	     38.10576457	     45.95319279	      0.00000000	      0.00000000	      9.09818095	    -14.42179433	     -3.85608807	     91.41775267	     47.94850639	      0.00000000	      0.00000000
     21.44914286	     -6.65506050	     -5.66105977	      2.52275954	      1.02770864	      0.92370274	      0.47335676	     19.90066839	      2.47592078	    -18.29050314	     18.40883276	     18.40883276	      7.37384671	     -0.67718726	     -3.05648303	     27.94008355	    -11.41053128	      5.48703028	     70.20664932	     70.20664932	      3.11055973	    -15.47259311	      3.62649267	    -12.01747371	      4.39407675	      2.76249822	      1.06441201	    -15.10228528	     -3.47598597	     39.38499338	     45.91918539	      0.00000000	      0.00000000	      7.74158980	    -14.30899884	     -3.29693740	     88.81007064	     47.86181653	      0.00000000	      0.00000000
     21.46071429	     -6.61848381	     -5.77080042	      2.71617833	      1.02698162	      0.92460022	      0.47503967	     19.01365742	      2.79023971	    -18.57967533	     17.77787224	     17.77787224	      7.60351561	     -0.28306617	     -3.10267737	     30.04160671	    -11.44321363	      5.84449756	     71.45284913	     71.45284913	      3.26533685	    -15.51065135	      3.84760929	    -12.13133399	      4.48805518	      2.82071334	      3.70961248	    -15.30383272	     -3.31099314	     40.66429353	     45.87543317	      0.00000000	      0.00000000	      6.77764301	    -13.92835362	     -2.92864274	     84.95881323	     47.76658128	      0.00000000	      0.00000000
     21.47228571	     -6.59447689	     -5.85180134	      2.87889412	      1.02622073	      0.92534750	      0.47660115	     18.18695476	      3.06837666	    -18.73934941	     17.24087061	     17.24087061	      7.91852628	      0.07300569	     -3.28327321	     32.04900501	    -11.40389908	      6.14045295	     72.23624982	     72.23624982	      3.75704436	    -15.58139857	      4.32051964	    -12.22229344	      4.50980974	      3.61720247	      5.82719212	    -15.89640926	     -2.62596641	     41.80178969	     45.80336320	      0.00000000	      0.00000000	      6.77851457	    -12.86662170	     -2.53119070	     79.83124117	     47.66312898	      0.00000000	      0.00000000
     21.48385714	     -6.59080404	     -5.95407540	      3.09883975	      1.02531087	      0.92602272	      0.47797187	     17.35131595	      3.38415076	    -18.90006664	     16.59697990	     16.59697990	      8.17168420	      0.28064066	     -3.27855677	     34.00681898	    -11.37644252	      6.37830098	     72.51902932	     72.51902932	      4.02882580	    -15.74112661	      4.29114744	    -12.35145051	      4.57612120	      3.43663957	      8.62590901	    -15.99841226	     -2.53913535	     43.27408942	     45.75886791	      0.00000000	      0.00000000	      5.55481348	    -12.75390489	     -2.11970995	     76.58462816	     47.57453429	      0.00000000	      0.00000000
     21.49542857	     -6.58638064	     -6.02393722	      3.30086044	      1.02431123	      0.92662895	      0.47912013	     16.55238879	      3.64501183	    -19.03072366	     16.01984466	     16.01984466	      8.41092916	      0.50255413	     -3.41600260	     35.84064051	    -11.31146131	      6.47340469	     72.34573505	     72.34573505	      4.40377193	    -15.98566921	      4.52651179	    -12.41536066	      4.63162890	      4.00376443	     11.03921327	    -16.61665619	     -1.66064596	     44.45987830	     45.68209231	      0.00000000	      0.00000000	      5.57925519	    -11.72488992	     -2.10569964	     70.91480930	     47.48798276	      0.00000000	      0.00000000
     21.50700000	     -6.60330125	     -6.10890080	      3.54920348	      1.02323149	      0.92707620	      0.48008663	     15.75533348	      3.92963090	    -19.13785738	     15.37569321	     15.37569321	      8.63924142	      0.61785165	     -3.40630828	     37.59018937	    -11.20550199	      6.56803907	     71.73247705	     71.73247705	      4.67687377	    -16.35720749	      4.70795366	    -12.53467829	      4.68292861	      3.75150106	     13.91349503	    -16.67220252	     -1.49012759	     46.04966388	     45.63094687	      0.00000000	      0.00000000	      4.32976682	    -11.58210747	     -1.81145978	     67.66525679	     47.40769154	      0.00000000	      0.00000000
     21.51857143	     -6.60950531	     -6.17276420	      3.77086020	      1.02216826	      0.92748974	      0.48086354	     14.95570773	      4.18514428	    -19.20625132	     14.74785413	     14.74785413	      8.84331101	      0.74590602	     -3.47032992	     39.16252585	    -11.08639703	      6.54723260	     70.68299025	     70.68299025	      4.97741107	    -16.72109151	      5.18769414	    -12.61285761	      4.75118065	      3.75468441	     16.72024673	    -16.89905692	     -0.90244823	     47.50147724	     45.56581116	      0.00000000	      0.00000000	      3.63809273	    -11.07061894	     -1.81758274	     63.16309697	     47.33500284	      0.00000000	      0.00000000
